# xmcd
#
# Track frame offsets:
#	150
#	14527
#	30742
#	49860
#	60458
#	77462
#	95518
#	115869
#	132736
#	147807
#	166406
#	184265
#	201742
#	216409
#
# Disc length: 3218 seconds
#
# Revision: 1
# Processed by: cddbd v1.4PL0 Copyright (c) Steve Scherf et al.
# Submitted via: audiograbber 1.81.02
#
DISCID=d10c900e
DTITLE=Springbok -  Selection 6
DYEAR=1900
DGENRE=
TTITLE0=Mickey
TTITLE1=Celebration
TTITLE2=Thorn In My Side
TTITLE3=Bad Moon Rising
TTITLE4=Up and Down
TTITLE5=Another Night
TTITLE6=What Is Love
TTITLE7=Itsy Bitsy Bikini
TTITLE8=Video Killed The Radio Star
TTITLE9=You May Be Right
TTITLE10=Take A Chance On Me
TTITLE11=Bette Davis Eyes
TTITLE12=Free Electric Band
TTITLE13=Rock 'N Roll Dreams Come Through
EXTD=
EXTT0=
EXTT1=
EXTT2=
EXTT3=
EXTT4=
EXTT5=
EXTT6=
EXTT7=
EXTT8=
EXTT9=
EXTT10=
EXTT11=
EXTT12=
EXTT13=
PLAYORDER=
